<mxfile host="app.diagrams.net" agent="Mozilla/5.0 (Windows NT 10.0; Win64; x64) AppleWebKit/537.36 (KHTML, like Gecko) Chrome/136.0.0.0 Safari/537.36" version="27.1.1" pages="3">
  <diagram id="Ht1M8jgEwFfnCIfOTk4-" name="Vista FÃ­sica ">
    <mxGraphModel dx="2066" dy="1092" grid="1" gridSize="10" guides="1" tooltips="1" connect="1" arrows="1" fold="1" page="1" pageScale="1" pageWidth="1169" pageHeight="827" math="0" shadow="0" adaptiveColors="simple">
      <root>
        <mxCell id="0" />
        <mxCell id="1" parent="0" />
        <mxCell id="ypTE839GbtWKBjmtX1f9-20" value="" style="whiteSpace=wrap;html=1;aspect=fixed;" parent="1" vertex="1">
          <mxGeometry x="262" y="30" width="470" height="470" as="geometry" />
        </mxCell>
        <mxCell id="G4PtFmiPBYeWRFxe2pa_-50" style="edgeStyle=orthogonalEdgeStyle;rounded=0;orthogonalLoop=1;jettySize=auto;html=1;" parent="1" source="G4PtFmiPBYeWRFxe2pa_-2" target="G4PtFmiPBYeWRFxe2pa_-29" edge="1">
          <mxGeometry relative="1" as="geometry">
            <mxPoint x="170" y="120.5" as="targetPoint" />
          </mxGeometry>
        </mxCell>
        <mxCell id="G4PtFmiPBYeWRFxe2pa_-2" value="&lt;b style=&quot;color: rgb(0, 0, 0);&quot;&gt;API Gateway&lt;/b&gt;" style="outlineConnect=0;fontColor=#232F3E;gradientColor=#F78E04;gradientDirection=north;fillColor=#D05C17;strokeColor=#ffffff;dashed=0;verticalLabelPosition=bottom;verticalAlign=top;align=center;html=1;fontSize=12;fontStyle=0;aspect=fixed;shape=mxgraph.aws4.resourceIcon;resIcon=mxgraph.aws4.lambda;labelBackgroundColor=#ffffff;spacingTop=3;" parent="1" vertex="1">
          <mxGeometry x="303.5" y="87" width="67" height="67" as="geometry" />
        </mxCell>
        <mxCell id="G4PtFmiPBYeWRFxe2pa_-24" value="&lt;b&gt;AWS CloudFront&lt;/b&gt;" style="shape=image;html=1;verticalAlign=top;verticalLabelPosition=bottom;labelBackgroundColor=#ffffff;imageAspect=0;aspect=fixed;image=https://cdn4.iconfinder.com/data/icons/for-your-interface-free-samples/128/Globe-128.png" parent="1" vertex="1">
          <mxGeometry x="25" y="207" width="110" height="110" as="geometry" />
        </mxCell>
        <mxCell id="G4PtFmiPBYeWRFxe2pa_-29" value="&lt;b&gt;Cliente&lt;/b&gt;" style="sketch=0;outlineConnect=0;fontColor=#232F3E;gradientColor=none;fillColor=#232F3D;strokeColor=none;dashed=0;verticalLabelPosition=bottom;verticalAlign=top;align=center;html=1;fontSize=12;fontStyle=0;aspect=fixed;pointerEvents=1;shape=mxgraph.aws4.user;" parent="1" vertex="1">
          <mxGeometry x="35" y="75.5" width="90" height="90" as="geometry" />
        </mxCell>
        <mxCell id="G4PtFmiPBYeWRFxe2pa_-31" value="&lt;b&gt;API Gateway&lt;/b&gt;" style="text;html=1;align=center;verticalAlign=middle;resizable=0;points=[];autosize=1;strokeColor=none;fillColor=none;" parent="1" vertex="1">
          <mxGeometry x="303.5" y="35" width="100" height="30" as="geometry" />
        </mxCell>
        <mxCell id="G4PtFmiPBYeWRFxe2pa_-33" value="" style="whiteSpace=wrap;html=1;fillColor=#0050ef;fontColor=#ffffff;strokeColor=#001DBC;" parent="1" vertex="1">
          <mxGeometry x="262" y="30" width="40" height="40" as="geometry" />
        </mxCell>
        <mxCell id="G4PtFmiPBYeWRFxe2pa_-51" style="edgeStyle=orthogonalEdgeStyle;rounded=0;orthogonalLoop=1;jettySize=auto;html=1;" parent="1" source="G4PtFmiPBYeWRFxe2pa_-35" target="G4PtFmiPBYeWRFxe2pa_-24" edge="1">
          <mxGeometry relative="1" as="geometry" />
        </mxCell>
        <mxCell id="G4PtFmiPBYeWRFxe2pa_-35" value="&lt;b style=&quot;color: rgb(0, 0, 0);&quot;&gt;Initial Evaluation Lambda&lt;/b&gt;" style="outlineConnect=0;fontColor=#232F3E;gradientColor=#F78E04;gradientDirection=north;fillColor=#D05C17;strokeColor=#ffffff;dashed=0;verticalLabelPosition=bottom;verticalAlign=top;align=center;html=1;fontSize=12;fontStyle=0;aspect=fixed;shape=mxgraph.aws4.resourceIcon;resIcon=mxgraph.aws4.lambda;labelBackgroundColor=#ffffff;spacingTop=3;" parent="1" vertex="1">
          <mxGeometry x="310" y="228.5" width="67" height="67" as="geometry" />
        </mxCell>
        <mxCell id="G4PtFmiPBYeWRFxe2pa_-40" value="" style="whiteSpace=wrap;html=1;aspect=fixed;" parent="1" vertex="1">
          <mxGeometry x="460" y="72.5" width="240" height="240" as="geometry" />
        </mxCell>
        <mxCell id="G4PtFmiPBYeWRFxe2pa_-41" value="&lt;b style=&quot;color: rgb(0, 0, 0);&quot;&gt;&lt;font style=&quot;font-size: 9px;&quot;&gt;Accepted Equipment Flow Lambda&lt;/font&gt;&lt;/b&gt;" style="outlineConnect=0;fontColor=#232F3E;gradientColor=#F78E04;gradientDirection=north;fillColor=#D05C17;strokeColor=#ffffff;dashed=0;verticalLabelPosition=bottom;verticalAlign=top;align=center;html=1;fontSize=12;fontStyle=0;aspect=fixed;shape=mxgraph.aws4.resourceIcon;resIcon=mxgraph.aws4.lambda;labelBackgroundColor=#ffffff;spacingTop=3;" parent="1" vertex="1">
          <mxGeometry x="490" y="178.5" width="67" height="67" as="geometry" />
        </mxCell>
        <mxCell id="G4PtFmiPBYeWRFxe2pa_-73" style="edgeStyle=orthogonalEdgeStyle;rounded=0;orthogonalLoop=1;jettySize=auto;html=1;" parent="1" source="G4PtFmiPBYeWRFxe2pa_-43" target="G4PtFmiPBYeWRFxe2pa_-70" edge="1">
          <mxGeometry relative="1" as="geometry" />
        </mxCell>
        <mxCell id="G4PtFmiPBYeWRFxe2pa_-43" value="&lt;span&gt;&lt;font face=&quot;Helvetica&quot;&gt;&lt;b style=&quot;&quot;&gt;&lt;span style=&quot;color: light-dark(rgb(35, 47, 62), rgb(189, 199, 212));&quot;&gt;Management&lt;/span&gt;&lt;span style=&quot;color: light-dark(rgb(35, 47, 62), rgb(189, 199, 212));&quot;&gt;&lt;br&gt;Approved&lt;/span&gt;&lt;br&gt;&amp;nbsp;Equipment &lt;/b&gt;&lt;/font&gt;&lt;/span&gt;" style="sketch=0;points=[[0,0,0],[0.25,0,0],[0.5,0,0],[0.75,0,0],[1,0,0],[0,1,0],[0.25,1,0],[0.5,1,0],[0.75,1,0],[1,1,0],[0,0.25,0],[0,0.5,0],[0,0.75,0],[1,0.25,0],[1,0.5,0],[1,0.75,0]];outlineConnect=0;fontColor=#232F3E;fillColor=#01A88D;strokeColor=#ffffff;dashed=0;verticalLabelPosition=bottom;verticalAlign=top;align=left;html=1;fontSize=12;fontStyle=0;aspect=fixed;shape=mxgraph.aws4.resourceIcon;resIcon=mxgraph.aws4.snowball;" parent="1" vertex="1">
          <mxGeometry x="610" y="177" width="70" height="70" as="geometry" />
        </mxCell>
        <mxCell id="G4PtFmiPBYeWRFxe2pa_-46" style="edgeStyle=orthogonalEdgeStyle;rounded=0;orthogonalLoop=1;jettySize=auto;html=1;entryX=0;entryY=0.5;entryDx=0;entryDy=0;entryPerimeter=0;" parent="1" source="G4PtFmiPBYeWRFxe2pa_-41" target="G4PtFmiPBYeWRFxe2pa_-43" edge="1">
          <mxGeometry relative="1" as="geometry" />
        </mxCell>
        <mxCell id="G4PtFmiPBYeWRFxe2pa_-47" value="&lt;b&gt;Gestion &lt;br&gt;Equipos&lt;br&gt;&amp;nbsp;Aceptados&lt;/b&gt;" style="text;html=1;align=center;verticalAlign=middle;resizable=0;points=[];autosize=1;strokeColor=none;fillColor=none;" parent="1" vertex="1">
          <mxGeometry x="540" y="117" width="90" height="60" as="geometry" />
        </mxCell>
        <mxCell id="G4PtFmiPBYeWRFxe2pa_-48" value="&lt;b&gt;Amazon ECS&lt;/b&gt;" style="text;html=1;align=center;verticalAlign=middle;resizable=0;points=[];autosize=1;strokeColor=none;fillColor=none;" parent="1" vertex="1">
          <mxGeometry x="460" y="72.5" width="100" height="30" as="geometry" />
        </mxCell>
        <mxCell id="G4PtFmiPBYeWRFxe2pa_-49" value="&lt;b&gt;&lt;font style=&quot;color: rgb(0, 0, 0);&quot;&gt;RDS&lt;/font&gt;&lt;/b&gt;" style="sketch=0;outlineConnect=0;fontColor=#ffffff;fillColor=#0050ef;strokeColor=#001DBC;dashed=0;verticalLabelPosition=bottom;verticalAlign=top;align=center;html=1;fontSize=12;fontStyle=0;aspect=fixed;pointerEvents=1;shape=mxgraph.aws4.bucket;" parent="1" vertex="1">
          <mxGeometry x="299.5" y="350" width="75" height="78" as="geometry" />
        </mxCell>
        <mxCell id="G4PtFmiPBYeWRFxe2pa_-55" value="&lt;b&gt;Amazon DynamoDB&lt;/b&gt;" style="html=1;verticalLabelPosition=bottom;align=center;labelBackgroundColor=#ffffff;verticalAlign=top;strokeWidth=2;shadow=0;dashed=0;shape=mxgraph.ios7.icons.data;" parent="1" vertex="1">
          <mxGeometry x="498.5" y="369" width="50" height="50" as="geometry" />
        </mxCell>
        <mxCell id="G4PtFmiPBYeWRFxe2pa_-59" style="edgeStyle=orthogonalEdgeStyle;rounded=0;orthogonalLoop=1;jettySize=auto;html=1;entryX=0.5;entryY=0.02;entryDx=0;entryDy=0;entryPerimeter=0;" parent="1" source="G4PtFmiPBYeWRFxe2pa_-41" target="G4PtFmiPBYeWRFxe2pa_-55" edge="1">
          <mxGeometry relative="1" as="geometry" />
        </mxCell>
        <mxCell id="G4PtFmiPBYeWRFxe2pa_-62" value="" style="endArrow=classic;startArrow=classic;html=1;rounded=0;" parent="1" source="G4PtFmiPBYeWRFxe2pa_-35" target="G4PtFmiPBYeWRFxe2pa_-2" edge="1">
          <mxGeometry width="50" height="50" relative="1" as="geometry">
            <mxPoint x="390" y="250" as="sourcePoint" />
            <mxPoint x="430" y="220" as="targetPoint" />
            <Array as="points">
              <mxPoint x="420" y="260" />
              <mxPoint x="420" y="190" />
              <mxPoint x="420" y="120" />
            </Array>
          </mxGeometry>
        </mxCell>
        <mxCell id="G4PtFmiPBYeWRFxe2pa_-63" value="" style="endArrow=classic;html=1;rounded=0;" parent="1" target="G4PtFmiPBYeWRFxe2pa_-41" edge="1">
          <mxGeometry width="50" height="50" relative="1" as="geometry">
            <mxPoint x="420" y="210" as="sourcePoint" />
            <mxPoint x="720" y="260" as="targetPoint" />
          </mxGeometry>
        </mxCell>
        <mxCell id="G4PtFmiPBYeWRFxe2pa_-65" value="" style="whiteSpace=wrap;html=1;aspect=fixed;fillColor=#a20025;fontColor=#ffffff;strokeColor=#6F0000;" parent="1" vertex="1">
          <mxGeometry x="835.25" y="50.5" width="79.5" height="79.5" as="geometry" />
        </mxCell>
        <mxCell id="G4PtFmiPBYeWRFxe2pa_-64" value="" style="sketch=0;outlineConnect=0;dashed=0;verticalLabelPosition=bottom;verticalAlign=top;align=center;html=1;fontSize=12;fontStyle=0;aspect=fixed;pointerEvents=1;shape=mxgraph.aws4.bucket_with_objects;" parent="1" vertex="1">
          <mxGeometry x="846.87" y="61" width="56.25" height="58.5" as="geometry" />
        </mxCell>
        <mxCell id="G4PtFmiPBYeWRFxe2pa_-66" value="&lt;b&gt;Amazon S3&lt;/b&gt;" style="text;html=1;align=center;verticalAlign=middle;resizable=0;points=[];autosize=1;strokeColor=none;fillColor=none;" parent="1" vertex="1">
          <mxGeometry x="830" y="124" width="90" height="30" as="geometry" />
        </mxCell>
        <mxCell id="G4PtFmiPBYeWRFxe2pa_-70" value="&lt;font style=&quot;color: rgb(0, 0, 0);&quot;&gt;&lt;b&gt;Step Functions&lt;/b&gt;&lt;/font&gt;" style="sketch=0;points=[[0,0,0],[0.25,0,0],[0.5,0,0],[0.75,0,0],[1,0,0],[0,1,0],[0.25,1,0],[0.5,1,0],[0.75,1,0],[1,1,0],[0,0.25,0],[0,0.5,0],[0,0.75,0],[1,0.25,0],[1,0.5,0],[1,0.75,0]];outlineConnect=0;fontColor=#ffffff;fillColor=light-dark(#9933FF,#DA83FF);strokeColor=#FFFFFF;dashed=0;verticalLabelPosition=bottom;verticalAlign=top;align=center;html=1;fontSize=12;fontStyle=0;aspect=fixed;shape=mxgraph.aws4.resourceIcon;resIcon=mxgraph.aws4.step_functions;" parent="1" vertex="1">
          <mxGeometry x="836.75" y="173" width="78" height="78" as="geometry" />
        </mxCell>
        <mxCell id="G4PtFmiPBYeWRFxe2pa_-71" value="&lt;b&gt;Amazon Cognito&lt;/b&gt;" style="outlineConnect=0;dashed=0;verticalLabelPosition=bottom;verticalAlign=top;align=center;html=1;shape=mxgraph.aws3.cognito;fillColor=#AD688B;gradientColor=none;" parent="1" vertex="1">
          <mxGeometry x="840" y="295.5" width="70" height="87.5" as="geometry" />
        </mxCell>
        <mxCell id="G4PtFmiPBYeWRFxe2pa_-72" style="edgeStyle=elbowEdgeStyle;rounded=0;orthogonalLoop=1;jettySize=auto;html=1;entryX=0;entryY=0.5;entryDx=0;entryDy=0;" parent="1" source="G4PtFmiPBYeWRFxe2pa_-43" target="G4PtFmiPBYeWRFxe2pa_-65" edge="1">
          <mxGeometry relative="1" as="geometry">
            <Array as="points">
              <mxPoint x="760" y="150" />
            </Array>
          </mxGeometry>
        </mxCell>
        <mxCell id="G4PtFmiPBYeWRFxe2pa_-74" style="edgeStyle=orthogonalEdgeStyle;rounded=0;orthogonalLoop=1;jettySize=auto;html=1;entryX=0;entryY=0.5;entryDx=0;entryDy=0;entryPerimeter=0;" parent="1" source="G4PtFmiPBYeWRFxe2pa_-43" target="G4PtFmiPBYeWRFxe2pa_-71" edge="1">
          <mxGeometry relative="1" as="geometry" />
        </mxCell>
        <mxCell id="G4PtFmiPBYeWRFxe2pa_-77" style="edgeStyle=orthogonalEdgeStyle;rounded=0;orthogonalLoop=1;jettySize=auto;html=1;entryX=0;entryY=0.5;entryDx=0;entryDy=0;" parent="1" source="G4PtFmiPBYeWRFxe2pa_-75" target="G4PtFmiPBYeWRFxe2pa_-76" edge="1">
          <mxGeometry relative="1" as="geometry">
            <mxPoint x="240.00000000000023" y="635" as="targetPoint" />
          </mxGeometry>
        </mxCell>
        <mxCell id="G4PtFmiPBYeWRFxe2pa_-75" value="&lt;b&gt;Evaluador&lt;/b&gt;" style="sketch=0;outlineConnect=0;fontColor=#232F3E;gradientColor=none;fillColor=#232F3D;strokeColor=none;dashed=0;verticalLabelPosition=bottom;verticalAlign=top;align=center;html=1;fontSize=12;fontStyle=0;aspect=fixed;pointerEvents=1;shape=mxgraph.aws4.user;" parent="1" vertex="1">
          <mxGeometry x="35" y="590" width="90" height="90" as="geometry" />
        </mxCell>
        <mxCell id="G4PtFmiPBYeWRFxe2pa_-80" style="edgeStyle=orthogonalEdgeStyle;rounded=0;orthogonalLoop=1;jettySize=auto;html=1;entryX=0;entryY=0.5;entryDx=0;entryDy=0;" parent="1" source="G4PtFmiPBYeWRFxe2pa_-76" target="G4PtFmiPBYeWRFxe2pa_-79" edge="1">
          <mxGeometry relative="1" as="geometry" />
        </mxCell>
        <mxCell id="G4PtFmiPBYeWRFxe2pa_-76" value="&lt;b&gt;Operador Recibe equipo&lt;/b&gt;" style="rounded=1;whiteSpace=wrap;html=1;fillColor=#fad9d5;strokeColor=#ae4132;" parent="1" vertex="1">
          <mxGeometry x="219.25" y="602.5" width="125.5" height="65" as="geometry" />
        </mxCell>
        <mxCell id="G4PtFmiPBYeWRFxe2pa_-83" style="edgeStyle=orthogonalEdgeStyle;rounded=0;orthogonalLoop=1;jettySize=auto;html=1;entryX=0;entryY=0.5;entryDx=0;entryDy=0;" parent="1" source="G4PtFmiPBYeWRFxe2pa_-79" target="G4PtFmiPBYeWRFxe2pa_-81" edge="1">
          <mxGeometry relative="1" as="geometry" />
        </mxCell>
        <mxCell id="G4PtFmiPBYeWRFxe2pa_-79" value="&lt;b style=&quot;background-color: rgb(248, 206, 204);&quot;&gt;&lt;span style=&quot;font-family: &amp;quot;Google Sans&amp;quot;, Arial, sans-serif; text-align: start;&quot;&gt;&lt;font style=&quot;color: rgb(0, 0, 0); font-size: 13px;&quot;&gt;Â¿&lt;/font&gt;&lt;/span&gt;En buena condiciÃ³n&lt;span style=&quot;font-family: &amp;quot;Google Sans&amp;quot;, Arial, sans-serif; text-align: start;&quot;&gt;&lt;font style=&quot;color: rgb(0, 0, 0); font-size: 13px;&quot;&gt;?&lt;/font&gt;&lt;/span&gt;&lt;/b&gt;" style="rounded=1;whiteSpace=wrap;html=1;fillColor=#fad9d5;strokeColor=#ae4132;" parent="1" vertex="1">
          <mxGeometry x="414.5" y="602.5" width="125.5" height="65" as="geometry" />
        </mxCell>
        <mxCell id="G4PtFmiPBYeWRFxe2pa_-84" style="edgeStyle=orthogonalEdgeStyle;rounded=0;orthogonalLoop=1;jettySize=auto;html=1;exitX=1;exitY=0.5;exitDx=0;exitDy=0;entryX=0;entryY=0.5;entryDx=0;entryDy=0;" parent="1" source="G4PtFmiPBYeWRFxe2pa_-81" target="G4PtFmiPBYeWRFxe2pa_-82" edge="1">
          <mxGeometry relative="1" as="geometry" />
        </mxCell>
        <mxCell id="G4PtFmiPBYeWRFxe2pa_-81" value="Emitir cheque" style="rhombus;whiteSpace=wrap;html=1;rounded=1;strokeColor=#ae4132;align=center;verticalAlign=middle;fontFamily=Helvetica;fontSize=12;fontColor=default;fillColor=#fad9d5;fontStyle=1" parent="1" vertex="1">
          <mxGeometry x="600" y="590" width="110" height="90" as="geometry" />
        </mxCell>
        <mxCell id="G4PtFmiPBYeWRFxe2pa_-82" value="&lt;b&gt;Enviar a reciclaje&lt;/b&gt;" style="rounded=1;whiteSpace=wrap;html=1;fillColor=#fad9d5;strokeColor=#ae4132;" parent="1" vertex="1">
          <mxGeometry x="770" y="602.5" width="125.5" height="65" as="geometry" />
        </mxCell>
        <mxCell id="G4PtFmiPBYeWRFxe2pa_-85" value="&lt;b&gt;&lt;font style=&quot;font-size: 13px;&quot;&gt;Step Functions&lt;/font&gt;&lt;/b&gt;" style="sketch=0;points=[[0,0,0],[0.25,0,0],[0.5,0,0],[0.75,0,0],[1,0,0],[0,1,0],[0.25,1,0],[0.5,1,0],[0.75,1,0],[1,1,0],[0,0.25,0],[0,0.5,0],[0,0.75,0],[1,0.25,0],[1,0.5,0],[1,0.75,0]];outlineConnect=0;fontColor=#232F3E;fillColor=#99004D;strokeColor=#ffffff;dashed=0;verticalLabelPosition=bottom;verticalAlign=top;align=center;html=1;fontSize=12;fontStyle=0;aspect=fixed;shape=mxgraph.aws4.resourceIcon;resIcon=mxgraph.aws4.step_functions;gradientColor=default;" parent="1" vertex="1">
          <mxGeometry x="793.75" y="720" width="78" height="78" as="geometry" />
        </mxCell>
        <mxCell id="G4PtFmiPBYeWRFxe2pa_-86" style="edgeStyle=orthogonalEdgeStyle;rounded=0;orthogonalLoop=1;jettySize=auto;html=1;entryX=0.5;entryY=0;entryDx=0;entryDy=0;entryPerimeter=0;" parent="1" source="G4PtFmiPBYeWRFxe2pa_-82" target="G4PtFmiPBYeWRFxe2pa_-85" edge="1">
          <mxGeometry relative="1" as="geometry" />
        </mxCell>
        <mxCell id="G4PtFmiPBYeWRFxe2pa_-87" style="edgeStyle=orthogonalEdgeStyle;rounded=0;orthogonalLoop=1;jettySize=auto;html=1;entryX=0;entryY=0.5;entryDx=0;entryDy=0;entryPerimeter=0;exitX=0.497;exitY=0.944;exitDx=0;exitDy=0;exitPerimeter=0;" parent="1" source="G4PtFmiPBYeWRFxe2pa_-81" target="G4PtFmiPBYeWRFxe2pa_-85" edge="1">
          <mxGeometry relative="1" as="geometry">
            <Array as="points">
              <mxPoint x="655" y="759" />
            </Array>
          </mxGeometry>
        </mxCell>
      </root>
    </mxGraphModel>
  </diagram>
  <diagram id="shEjeCl119uMltE5krKt" name="Vista logica">
    <mxGraphModel grid="1" page="1" gridSize="10" guides="1" tooltips="1" connect="1" arrows="1" fold="1" pageScale="1" pageWidth="827" pageHeight="1169" math="0" shadow="0">
      <root>
        <mxCell id="0" />
        <mxCell id="1" parent="0" />
        <mxCell id="0qyNUphklKWvuwRjiRbs-5" style="edgeStyle=orthogonalEdgeStyle;rounded=0;orthogonalLoop=1;jettySize=auto;html=1;entryX=0.5;entryY=0;entryDx=0;entryDy=0;" edge="1" parent="1" source="0qyNUphklKWvuwRjiRbs-1" target="0qyNUphklKWvuwRjiRbs-3">
          <mxGeometry relative="1" as="geometry" />
        </mxCell>
        <mxCell id="0qyNUphklKWvuwRjiRbs-1" value="&lt;b&gt;Inicio&lt;/b&gt;&lt;div&gt;&lt;p data-pm-slice=&quot;1 1 []&quot;&gt;El usuario inicia el proceso desde la web/app.&lt;/p&gt;&lt;/div&gt;" style="ellipse;whiteSpace=wrap;html=1;fontFamily=Verdana;" vertex="1" parent="1">
          <mxGeometry x="330" y="30" width="150" height="100" as="geometry" />
        </mxCell>
        <mxCell id="0qyNUphklKWvuwRjiRbs-7" style="edgeStyle=orthogonalEdgeStyle;rounded=0;orthogonalLoop=1;jettySize=auto;html=1;entryX=0.5;entryY=0;entryDx=0;entryDy=0;" edge="1" parent="1" source="0qyNUphklKWvuwRjiRbs-3" target="0qyNUphklKWvuwRjiRbs-6">
          <mxGeometry relative="1" as="geometry" />
        </mxCell>
        <mxCell id="0qyNUphklKWvuwRjiRbs-3" value="&lt;b&gt;Registra &lt;font face=&quot;Verdana&quot;&gt;dispositivo&lt;/font&gt;&lt;/b&gt;&lt;div&gt;&lt;p data-pm-slice=&quot;1 1 []&quot;&gt;&lt;font face=&quot;Verdana&quot;&gt;El usuario registra el dispositivo en el sistema.&lt;/font&gt;&lt;/p&gt;&lt;/div&gt;" style="rounded=0;whiteSpace=wrap;html=1;" vertex="1" parent="1">
          <mxGeometry x="317.5" y="200" width="175" height="80" as="geometry" />
        </mxCell>
        <mxCell id="0qyNUphklKWvuwRjiRbs-9" style="edgeStyle=orthogonalEdgeStyle;rounded=0;orthogonalLoop=1;jettySize=auto;html=1;entryX=0.5;entryY=0;entryDx=0;entryDy=0;" edge="1" parent="1" source="0qyNUphklKWvuwRjiRbs-6" target="0qyNUphklKWvuwRjiRbs-8">
          <mxGeometry relative="1" as="geometry">
            <mxPoint x="405" y="470" as="targetPoint" />
          </mxGeometry>
        </mxCell>
        <mxCell id="0qyNUphklKWvuwRjiRbs-6" value="&lt;h2 data-pm-slice=&quot;1 1 []&quot;&gt;&lt;font style=&quot;font-size: 12px;&quot;&gt;Consulta catÃ¡logo&lt;/font&gt;&lt;/h2&gt;&lt;div&gt;&lt;p data-pm-slice=&quot;1 1 []&quot;&gt;&lt;font&gt;El sistema consulta el catÃ¡logo y aplica reglas de evaluaciÃ³n.&lt;/font&gt;&lt;/p&gt;&lt;/div&gt;" style="rounded=0;whiteSpace=wrap;html=1;fontFamily=Verdana;" vertex="1" parent="1">
          <mxGeometry x="318.75" y="340" width="172.5" height="90" as="geometry" />
        </mxCell>
        <mxCell id="0qyNUphklKWvuwRjiRbs-11" style="edgeStyle=orthogonalEdgeStyle;rounded=0;orthogonalLoop=1;jettySize=auto;html=1;entryX=0.5;entryY=0;entryDx=0;entryDy=0;" edge="1" parent="1" source="0qyNUphklKWvuwRjiRbs-8" target="0qyNUphklKWvuwRjiRbs-10">
          <mxGeometry relative="1" as="geometry" />
        </mxCell>
        <mxCell id="0qyNUphklKWvuwRjiRbs-8" value="&lt;h2 data-pm-slice=&quot;1 1 []&quot;&gt;&lt;span style=&quot;background-color: transparent; color: light-dark(rgb(0, 0, 0), rgb(255, 255, 255)); font-size: 12px;&quot;&gt;Genera cotizaciÃ³n&lt;br&gt;&lt;span style=&quot;font-weight: normal;&quot;&gt;Se genera una cotizaciÃ³n y se notifica al usuario&lt;/span&gt;&lt;/span&gt;&lt;/h2&gt;" style="rounded=0;whiteSpace=wrap;html=1;fontFamily=Verdana;" vertex="1" parent="1">
          <mxGeometry x="318.75" y="480" width="172.5" height="90" as="geometry" />
        </mxCell>
        <mxCell id="0qyNUphklKWvuwRjiRbs-14" style="edgeStyle=orthogonalEdgeStyle;rounded=0;orthogonalLoop=1;jettySize=auto;html=1;entryX=0.5;entryY=0;entryDx=0;entryDy=0;" edge="1" parent="1" source="0qyNUphklKWvuwRjiRbs-10" target="0qyNUphklKWvuwRjiRbs-13">
          <mxGeometry relative="1" as="geometry" />
        </mxCell>
        <mxCell id="0qyNUphklKWvuwRjiRbs-15" style="edgeStyle=orthogonalEdgeStyle;rounded=0;orthogonalLoop=1;jettySize=auto;html=1;entryX=0.5;entryY=0;entryDx=0;entryDy=0;" edge="1" parent="1" source="0qyNUphklKWvuwRjiRbs-10" target="0qyNUphklKWvuwRjiRbs-12">
          <mxGeometry relative="1" as="geometry" />
        </mxCell>
        <mxCell id="0qyNUphklKWvuwRjiRbs-10" value="&lt;h2 data-pm-slice=&quot;1 1 []&quot;&gt;&lt;span style=&quot;background-color: transparent; color: light-dark(rgb(0, 0, 0), rgb(255, 255, 255)); font-size: 12px;&quot;&gt;Usuario acepta?&lt;br&gt;&lt;/span&gt;&lt;p data-pm-slice=&quot;1 1 []&quot;&gt;&lt;font style=&quot;font-size: 12px; font-weight: normal;&quot;&gt;Â¿El usuario acepta la cotizaciÃ³n?&lt;/font&gt;&lt;/p&gt;&lt;/h2&gt;" style="rounded=0;whiteSpace=wrap;html=1;fontFamily=Verdana;" vertex="1" parent="1">
          <mxGeometry x="318.75" y="630" width="172.5" height="90" as="geometry" />
        </mxCell>
        <mxCell id="0qyNUphklKWvuwRjiRbs-12" value="&lt;h2 data-pm-slice=&quot;1 1 []&quot;&gt;&lt;span style=&quot;font-size: 12px;&quot;&gt;Cancela proceso&lt;br&gt;&lt;span style=&quot;font-weight: normal;&quot;&gt;el proceso es cancelado por el usuario&lt;/span&gt;&lt;/span&gt;&lt;/h2&gt;" style="rounded=0;whiteSpace=wrap;html=1;fontFamily=Verdana;" vertex="1" parent="1">
          <mxGeometry x="500" y="770" width="182.5" height="90" as="geometry" />
        </mxCell>
        <mxCell id="0qyNUphklKWvuwRjiRbs-19" style="edgeStyle=orthogonalEdgeStyle;rounded=0;orthogonalLoop=1;jettySize=auto;html=1;" edge="1" parent="1" source="0qyNUphklKWvuwRjiRbs-13" target="0qyNUphklKWvuwRjiRbs-18">
          <mxGeometry relative="1" as="geometry">
            <Array as="points">
              <mxPoint x="210" y="900" />
              <mxPoint x="405" y="900" />
            </Array>
          </mxGeometry>
        </mxCell>
        <mxCell id="0qyNUphklKWvuwRjiRbs-13" value="&lt;h2 data-pm-slice=&quot;1 1 []&quot;&gt;&lt;font&gt;&lt;span style=&quot;font-size: 12px;&quot;&gt;GestiÃ³n enviÃ³ o traslado&lt;br&gt;&lt;span style=&quot;font-weight: 400;&quot;&gt;El usuariorecibe la caja y envia el equipo&lt;/span&gt;&lt;/span&gt;&lt;/font&gt;&lt;/h2&gt;" style="rounded=0;whiteSpace=wrap;html=1;fontFamily=Verdana;" vertex="1" parent="1">
          <mxGeometry x="120" y="770" width="180" height="90" as="geometry" />
        </mxCell>
        <mxCell id="0qyNUphklKWvuwRjiRbs-16" value="SI" style="text;html=1;align=center;verticalAlign=middle;resizable=0;points=[];autosize=1;strokeColor=none;fillColor=none;fontStyle=1" vertex="1" parent="1">
          <mxGeometry x="261" y="638" width="40" height="30" as="geometry" />
        </mxCell>
        <mxCell id="0qyNUphklKWvuwRjiRbs-17" value="NO" style="text;html=1;align=center;verticalAlign=middle;resizable=0;points=[];autosize=1;strokeColor=none;fillColor=none;fontStyle=1" vertex="1" parent="1">
          <mxGeometry x="491" y="638" width="40" height="30" as="geometry" />
        </mxCell>
        <mxCell id="0qyNUphklKWvuwRjiRbs-20" style="edgeStyle=orthogonalEdgeStyle;rounded=0;orthogonalLoop=1;jettySize=auto;html=1;entryX=0.091;entryY=0.8;entryDx=0;entryDy=0;entryPerimeter=0;" edge="1" parent="1" source="0qyNUphklKWvuwRjiRbs-18" target="0qyNUphklKWvuwRjiRbs-25">
          <mxGeometry relative="1" as="geometry">
            <mxPoint x="400" y="1280" as="targetPoint" />
          </mxGeometry>
        </mxCell>
        <mxCell id="0qyNUphklKWvuwRjiRbs-18" value="&lt;h2 data-pm-slice=&quot;1 1 []&quot;&gt;&lt;font&gt;&lt;span style=&quot;font-size: 12px;&quot;&gt;EvalÃºa condiciÃ³n&lt;br&gt;&lt;span style=&quot;font-weight: 400;&quot;&gt;Esta en buena condiciÃ³n&lt;/span&gt;&lt;/span&gt;&lt;/font&gt;&lt;/h2&gt;" style="rounded=0;whiteSpace=wrap;html=1;fontFamily=Verdana;" vertex="1" parent="1">
          <mxGeometry x="311" y="1010" width="180" height="90" as="geometry" />
        </mxCell>
        <mxCell id="0qyNUphklKWvuwRjiRbs-21" value="" style="endArrow=none;html=1;rounded=0;" edge="1" parent="1">
          <mxGeometry width="50" height="50" relative="1" as="geometry">
            <mxPoint x="255.66" y="1190" as="sourcePoint" />
            <mxPoint x="545.66" y="1190" as="targetPoint" />
          </mxGeometry>
        </mxCell>
        <mxCell id="0qyNUphklKWvuwRjiRbs-22" value="" style="endArrow=classic;html=1;rounded=0;" edge="1" parent="1">
          <mxGeometry width="50" height="50" relative="1" as="geometry">
            <mxPoint x="255.66" y="1190" as="sourcePoint" />
            <mxPoint x="255.66" y="1310" as="targetPoint" />
          </mxGeometry>
        </mxCell>
        <mxCell id="0qyNUphklKWvuwRjiRbs-23" value="" style="endArrow=classic;html=1;rounded=0;" edge="1" parent="1">
          <mxGeometry width="50" height="50" relative="1" as="geometry">
            <mxPoint x="545.66" y="1190" as="sourcePoint" />
            <mxPoint x="546" y="1310" as="targetPoint" />
          </mxGeometry>
        </mxCell>
        <mxCell id="0qyNUphklKWvuwRjiRbs-24" value="SI" style="text;html=1;align=center;verticalAlign=middle;resizable=0;points=[];autosize=1;strokeColor=none;fillColor=none;fontStyle=1" vertex="1" parent="1">
          <mxGeometry x="356.66" y="1160" width="40" height="30" as="geometry" />
        </mxCell>
        <mxCell id="0qyNUphklKWvuwRjiRbs-25" value="NO" style="text;html=1;align=center;verticalAlign=middle;resizable=0;points=[];autosize=1;strokeColor=none;fillColor=none;fontStyle=1" vertex="1" parent="1">
          <mxGeometry x="396.66" y="1160" width="40" height="30" as="geometry" />
        </mxCell>
        <mxCell id="0qyNUphklKWvuwRjiRbs-29" style="edgeStyle=orthogonalEdgeStyle;rounded=0;orthogonalLoop=1;jettySize=auto;html=1;entryX=0.5;entryY=0;entryDx=0;entryDy=0;" edge="1" parent="1" source="0qyNUphklKWvuwRjiRbs-26" target="0qyNUphklKWvuwRjiRbs-28">
          <mxGeometry relative="1" as="geometry" />
        </mxCell>
        <mxCell id="0qyNUphklKWvuwRjiRbs-26" value="&lt;h2 data-pm-slice=&quot;1 1 []&quot;&gt;&lt;font&gt;&lt;span style=&quot;font-size: 12px;&quot;&gt;Genera compensaciÃ³n&lt;br&gt;&lt;span style=&quot;font-weight: 400;&quot;&gt;Se envÃ­a cheque al usuario&lt;/span&gt;&lt;/span&gt;&lt;/font&gt;&lt;/h2&gt;" style="rounded=0;whiteSpace=wrap;html=1;fontFamily=Verdana;" vertex="1" parent="1">
          <mxGeometry x="170" y="1310" width="180" height="90" as="geometry" />
        </mxCell>
        <mxCell id="0qyNUphklKWvuwRjiRbs-30" style="edgeStyle=orthogonalEdgeStyle;rounded=0;orthogonalLoop=1;jettySize=auto;html=1;exitX=0.5;exitY=1;exitDx=0;exitDy=0;" edge="1" parent="1" source="0qyNUphklKWvuwRjiRbs-27">
          <mxGeometry relative="1" as="geometry">
            <mxPoint x="400" y="1480" as="targetPoint" />
          </mxGeometry>
        </mxCell>
        <mxCell id="0qyNUphklKWvuwRjiRbs-27" value="&lt;h2 data-pm-slice=&quot;1 1 []&quot;&gt;&lt;font&gt;&lt;span style=&quot;font-size: 12px;&quot;&gt;Recicla equipo&lt;br&gt;&lt;span style=&quot;font-weight: 400;&quot;&gt;Si no esta en buen estado se recicla&lt;/span&gt;&lt;/span&gt;&lt;/font&gt;&lt;/h2&gt;" style="rounded=0;whiteSpace=wrap;html=1;fontFamily=Verdana;" vertex="1" parent="1">
          <mxGeometry x="460" y="1310" width="180" height="90" as="geometry" />
        </mxCell>
        <mxCell id="0qyNUphklKWvuwRjiRbs-28" value="&lt;b&gt;Fin&lt;/b&gt;&lt;br&gt;Se notifica el resultado al usuario y se cierra el proceso" style="ellipse;whiteSpace=wrap;html=1;fontFamily=Verdana;" vertex="1" parent="1">
          <mxGeometry x="331.5" y="1480" width="138.5" height="90" as="geometry" />
        </mxCell>
      </root>
    </mxGraphModel>
  </diagram>
  <diagram id="P9RQ7ARwRZk8yzAclerx" name="IMPLEMENTACION">
    <mxGraphModel dx="1327" dy="676" grid="1" gridSize="10" guides="1" tooltips="1" connect="1" arrows="1" fold="1" page="1" pageScale="1" pageWidth="827" pageHeight="1169" math="0" shadow="0">
      <root>
        <mxCell id="0" />
        <mxCell id="1" parent="0" />
        <mxCell id="c1Aj8o21LwzZlXMGy9up-1" value="Web" style="swimlane;whiteSpace=wrap;html=1;" parent="1" vertex="1">
          <mxGeometry x="140" y="270" width="200" height="150" as="geometry" />
        </mxCell>
        <mxCell id="c1Aj8o21LwzZlXMGy9up-3" value="Web App" style="rounded=0;whiteSpace=wrap;html=1;" parent="c1Aj8o21LwzZlXMGy9up-1" vertex="1">
          <mxGeometry x="40" y="50" width="120" height="60" as="geometry" />
        </mxCell>
        <mxCell id="c1Aj8o21LwzZlXMGy9up-4" value="Shipping" style="swimlane;whiteSpace=wrap;html=1;" parent="1" vertex="1">
          <mxGeometry x="140" y="460" width="200" height="220" as="geometry" />
        </mxCell>
        <mxCell id="c1Aj8o21LwzZlXMGy9up-5" value="Shipment&lt;br&gt;Service" style="rounded=0;whiteSpace=wrap;html=1;" parent="c1Aj8o21LwzZlXMGy9up-4" vertex="1">
          <mxGeometry x="40" y="50" width="120" height="60" as="geometry" />
        </mxCell>
        <mxCell id="c1Aj8o21LwzZlXMGy9up-6" value="Receiving&lt;br&gt;Handler" style="rounded=0;whiteSpace=wrap;html=1;" parent="c1Aj8o21LwzZlXMGy9up-4" vertex="1">
          <mxGeometry x="40" y="140" width="120" height="60" as="geometry" />
        </mxCell>
        <mxCell id="c1Aj8o21LwzZlXMGy9up-7" value="Catalog" style="swimlane;whiteSpace=wrap;html=1;" parent="1" vertex="1">
          <mxGeometry x="140" y="750" width="200" height="150" as="geometry" />
        </mxCell>
        <mxCell id="c1Aj8o21LwzZlXMGy9up-8" value="&lt;span style=&quot;font-weight: 700;&quot;&gt;Catalog&lt;/span&gt;" style="rounded=0;whiteSpace=wrap;html=1;" parent="c1Aj8o21LwzZlXMGy9up-7" vertex="1">
          <mxGeometry x="40" y="50" width="120" height="60" as="geometry" />
        </mxCell>
        <mxCell id="c1Aj8o21LwzZlXMGy9up-9" value="Processing" style="swimlane;whiteSpace=wrap;html=1;" parent="1" vertex="1">
          <mxGeometry x="414" y="550" width="200" height="220" as="geometry" />
        </mxCell>
        <mxCell id="c1Aj8o21LwzZlXMGy9up-10" value="Evaluation&lt;br&gt;Service" style="rounded=0;whiteSpace=wrap;html=1;" parent="c1Aj8o21LwzZlXMGy9up-9" vertex="1">
          <mxGeometry x="40" y="50" width="120" height="60" as="geometry" />
        </mxCell>
        <mxCell id="c1Aj8o21LwzZlXMGy9up-11" value="Disposition &lt;br&gt;Handler" style="rounded=0;whiteSpace=wrap;html=1;" parent="c1Aj8o21LwzZlXMGy9up-9" vertex="1">
          <mxGeometry x="40" y="130" width="120" height="60" as="geometry" />
        </mxCell>
        <mxCell id="c1Aj8o21LwzZlXMGy9up-12" value="" style="sketch=0;shadow=0;dashed=0;html=1;strokeColor=none;labelPosition=center;verticalLabelPosition=bottom;verticalAlign=top;outlineConnect=0;align=center;shape=mxgraph.office.databases.database_mini_1;fillColor=#2072B8;" parent="1" vertex="1">
          <mxGeometry x="485.25" y="920" width="57.5" height="37" as="geometry" />
        </mxCell>
        <mxCell id="c1Aj8o21LwzZlXMGy9up-13" value="Evaluation Rules" style="text;html=1;align=center;verticalAlign=middle;resizable=0;points=[];autosize=1;strokeColor=none;fillColor=none;" parent="1" vertex="1">
          <mxGeometry x="454" y="957" width="120" height="30" as="geometry" />
        </mxCell>
        <mxCell id="c1Aj8o21LwzZlXMGy9up-16" value="Device Catalog" style="shape=cylinder3;whiteSpace=wrap;html=1;boundedLbl=1;backgroundOutline=1;size=15;" parent="1" vertex="1">
          <mxGeometry x="710" y="670" width="60" height="80" as="geometry" />
        </mxCell>
        <mxCell id="c1Aj8o21LwzZlXMGy9up-17" value="Quotation" style="swimlane;whiteSpace=wrap;html=1;" parent="1" vertex="1">
          <mxGeometry x="620" y="260" width="200" height="220" as="geometry" />
        </mxCell>
        <mxCell id="c1Aj8o21LwzZlXMGy9up-18" value="&lt;span style=&quot;font-weight: 700;&quot;&gt;Quotation&lt;/span&gt;&lt;br&gt;Service" style="rounded=0;whiteSpace=wrap;html=1;" parent="c1Aj8o21LwzZlXMGy9up-17" vertex="1">
          <mxGeometry x="40" y="50" width="120" height="60" as="geometry" />
        </mxCell>
        <mxCell id="c1Aj8o21LwzZlXMGy9up-19" value="Adjusment&lt;br&gt;Handler" style="rounded=0;whiteSpace=wrap;html=1;" parent="c1Aj8o21LwzZlXMGy9up-17" vertex="1">
          <mxGeometry x="40" y="130" width="120" height="60" as="geometry" />
        </mxCell>
        <mxCell id="c1Aj8o21LwzZlXMGy9up-20" value="" style="endArrow=open;html=1;rounded=0;exitX=0.689;exitY=1.011;exitDx=0;exitDy=0;exitPerimeter=0;entryX=0.5;entryY=0;entryDx=0;entryDy=0;entryPerimeter=0;dashed=1;startArrow=none;startFill=0;endFill=0;" parent="1" source="c1Aj8o21LwzZlXMGy9up-19" target="c1Aj8o21LwzZlXMGy9up-16" edge="1">
          <mxGeometry width="50" height="50" relative="1" as="geometry">
            <mxPoint x="390" y="720" as="sourcePoint" />
            <mxPoint x="440" y="670" as="targetPoint" />
          </mxGeometry>
        </mxCell>
        <mxCell id="c1Aj8o21LwzZlXMGy9up-21" value="" style="endArrow=open;html=1;rounded=0;exitX=1;exitY=0.5;exitDx=0;exitDy=0;entryX=0;entryY=0.5;entryDx=0;entryDy=0;dashed=1;startArrow=none;startFill=0;endFill=0;" parent="1" source="c1Aj8o21LwzZlXMGy9up-6" target="c1Aj8o21LwzZlXMGy9up-10" edge="1">
          <mxGeometry width="50" height="50" relative="1" as="geometry">
            <mxPoint x="743" y="550" as="sourcePoint" />
            <mxPoint x="740" y="769" as="targetPoint" />
          </mxGeometry>
        </mxCell>
        <mxCell id="c1Aj8o21LwzZlXMGy9up-22" value="" style="endArrow=none;html=1;rounded=0;exitX=1;exitY=0.5;exitDx=0;exitDy=0;entryX=0.183;entryY=1.022;entryDx=0;entryDy=0;dashed=1;startArrow=none;startFill=0;endFill=0;entryPerimeter=0;" parent="1" source="c1Aj8o21LwzZlXMGy9up-5" target="c1Aj8o21LwzZlXMGy9up-19" edge="1">
          <mxGeometry width="50" height="50" relative="1" as="geometry">
            <mxPoint x="374.75" y="490" as="sourcePoint" />
            <mxPoint x="528.75" y="490" as="targetPoint" />
            <Array as="points">
              <mxPoint x="682" y="540" />
            </Array>
          </mxGeometry>
        </mxCell>
        <mxCell id="c1Aj8o21LwzZlXMGy9up-23" value="" style="endArrow=open;html=1;rounded=0;exitX=1;exitY=0.5;exitDx=0;exitDy=0;dashed=1;startArrow=none;startFill=0;endFill=0;" parent="1" source="c1Aj8o21LwzZlXMGy9up-3" edge="1">
          <mxGeometry width="50" height="50" relative="1" as="geometry">
            <mxPoint x="374.75" y="360" as="sourcePoint" />
            <mxPoint x="620" y="350" as="targetPoint" />
          </mxGeometry>
        </mxCell>
        <mxCell id="c1Aj8o21LwzZlXMGy9up-24" value="" style="endArrow=open;html=1;rounded=0;exitX=0.5;exitY=1;exitDx=0;exitDy=0;dashed=1;startArrow=none;startFill=0;endFill=0;" parent="1" source="c1Aj8o21LwzZlXMGy9up-9" target="c1Aj8o21LwzZlXMGy9up-12" edge="1">
          <mxGeometry width="50" height="50" relative="1" as="geometry">
            <mxPoint x="470" y="380" as="sourcePoint" />
            <mxPoint x="500" y="950" as="targetPoint" />
          </mxGeometry>
        </mxCell>
      </root>
    </mxGraphModel>
  </diagram>
</mxfile>
